<?xml version="1.0" standalone="no"?>
<!DOCTYPE svg PUBLIC "-//W3C//DTD SVG 20010904//EN"
 "http://www.w3.org/TR/2001/REC-SVG-20010904/DTD/svg10.dtd">
<svg version="1.0" xmlns="http://www.w3.org/2000/svg"
 width="512.000000pt" height="512.000000pt" viewBox="0 0 512.000000 512.000000"
 preserveAspectRatio="xMidYMid meet">

<g transform="translate(0.000000,512.000000) scale(0.100000,-0.100000)"
fill="#000000" stroke="none">
<path d="M992 3698 l-992 -993 995 -995 995 -995 0 583 0 583 113 -5 c61 -3
171 -8 242 -11 315 -14 654 -68 955 -152 444 -123 811 -309 1170 -591 127
-100 415 -391 520 -526 144 -184 133 -183 95 -16 -188 819 -545 1503 -1044
2000 -505 502 -1139 817 -1921 954 l-125 22 -5 567 -5 567 -993 -992z"/>
</g>
</svg>
