<?xml version="1.0" standalone="no"?>
<!DOCTYPE svg PUBLIC "-//W3C//DTD SVG 20010904//EN"
 "http://www.w3.org/TR/2001/REC-SVG-20010904/DTD/svg10.dtd">
<svg version="1.0" xmlns="http://www.w3.org/2000/svg"
 width="512.000000pt" height="512.000000pt" viewBox="0 0 512.000000 512.000000"
 preserveAspectRatio="xMidYMid meet">

<g transform="translate(0.000000,512.000000) scale(0.100000,-0.100000)"
fill="#000000" stroke="none">
<path d="M933 4137 c-881 -880 -933 -934 -933 -967 0 -33 52 -87 933 -967 888
-889 934 -933 968 -933 25 0 42 7 60 26 l24 26 3 374 3 374 107 0 c616 0 1197
-176 1692 -511 173 -117 270 -198 431 -358 272 -273 392 -445 628 -903 67
-131 131 -242 141 -248 34 -18 79 -12 106 15 l25 26 -4 662 c-3 553 -7 681
-21 777 -56 383 -145 674 -302 990 -99 198 -175 321 -305 495 -487 651 -1208
1088 -2005 1214 -136 21 -348 41 -439 41 l-54 0 -3 376 -3 376 -28 24 c-17 14
-41 24 -60 24 -29 0 -118 -86 -964 -933z m914 -16 c18 -15 51 -19 215 -24 106
-4 244 -13 307 -22 659 -90 1247 -381 1711 -845 456 -456 740 -1021 841 -1675
19 -125 22 -190 26 -610 l4 -470 -51 94 c-174 320 -356 560 -607 801 -392 377
-882 647 -1406 774 -267 65 -426 85 -757 93 l-245 6 -32 -27 -33 -28 0 -316 0
-317 -807 807 -808 808 805 805 805 805 5 -321 c5 -314 5 -321 27 -338z"/>
</g>
</svg>
